<?xml version="1.0" encoding="iso-8859-1"?>
<!-- Generator: Adobe Illustrator 19.0.0, SVG Export Plug-In . SVG Version: 6.00 Build 0)  -->
<svg version="1.1" id="Capa_1" xmlns="http://www.w3.org/2000/svg" xmlns:xlink="http://www.w3.org/1999/xlink" x="0px" y="0px"
	 viewBox="0 0 321.6 321.6" style="enable-background:new 0 0 321.6 321.6;" xml:space="preserve">
<g>
	<g>
		<g>
			<path d="M52.8,55.6c-14.4,0-26,11.6-26,26c0,14.4,11.6,26,26,26c14,0,26-11.6,26-26C78.8,67.2,67.2,55.6,52.8,55.6z M52.4,97.2
				c-8.4,0-15.6-6.8-15.6-15.6S44,66,52.4,66C61.2,66,68,73.2,68,81.6C68,90.4,60.8,97.2,52.4,97.2z"/>
			<path d="M283.6,68.4c-10.8,0-19.6,8.8-19.6,19.6s8.8,19.6,19.6,19.6s19.6-8.8,19.6-19.6C303.2,77.2,294.4,68.4,283.6,68.4z
				 M283.6,97.2c-5.2,0-9.2-4-9.2-9.2c0-5.2,4-9.2,9.2-9.2s9.2,4,9.2,9.2C292.8,93.2,288.8,97.2,283.6,97.2z"/>
			<path d="M321.6,88.4c0-21.2-17.2-38-38-38c-20.8,0-38,16.8-38,38c0,18.8,22.8,50.8,31.2,61.6L154,272.8c-6,6-14,9.2-22.8,9.2
				c-8.4,0-16.4-3.2-22.8-9.2c-12.4-12.4-12.4-32.8,0-45.2l104.8-105.2c16.4-16.4,16.4-43.2,0-60c-16.4-16.4-43.2-16.4-60,0
				l-66.8,67.2c10-17.2,18.4-35.2,18.4-48c0-28.8-23.6-52.4-52.4-52.4C23.6,29.2,0,52.8,0,81.6c0,30.8,46.4,90,48.4,92.4l4,5.2
				l3.6-4.4L160.8,69.6c6-6,14-9.2,22.8-9.2c8.4,0,16.4,3.2,22.8,9.2c6,6,9.2,14,9.2,22.8c0,8.4-3.2,16.4-9.2,22.8L101.6,220
				c-16.4,16.4-16.4,43.2,0,60c8,8,18.8,12.4,30,12.4c11.2,0,22-4.4,30-12.4l122-122l0.4,0.4l2-2.4l1.6-1.6l-0.4-0.4l0.8-0.8
				C291.6,148.8,321.6,108.8,321.6,88.4z M52.4,162.4c-14.4-19.6-42-60-42-80.8c0-23.2,18.8-42,42-42c23.2,0,42,18.8,42,42
				C94.4,101.2,66.8,142.4,52.4,162.4z M283.6,141.2c-10.4-14-27.6-40-27.6-53.2c0-15.2,12.4-27.6,27.6-27.6s27.6,12.4,27.6,27.6
				C311.2,100.8,294,127.2,283.6,141.2z"/>
		</g>
	</g>
</g>
<g>
</g>
<g>
</g>
<g>
</g>
<g>
</g>
<g>
</g>
<g>
</g>
<g>
</g>
<g>
</g>
<g>
</g>
<g>
</g>
<g>
</g>
<g>
</g>
<g>
</g>
<g>
</g>
<g>
</g>
</svg>
