<?xml version="1.0" encoding="iso-8859-1"?>
<!-- Generator: Adobe Illustrator 19.0.0, SVG Export Plug-In . SVG Version: 6.00 Build 0)  -->
<svg version="1.1" id="Capa_1" xmlns="http://www.w3.org/2000/svg" xmlns:xlink="http://www.w3.org/1999/xlink" x="0px" y="0px"
	 viewBox="0 0 512 512" style="enable-background:new 0 0 512 512;" xml:space="preserve">
<path style="fill:#C7CFE2;" d="M221.023,20.822c-45.185-0.308-82.503,36.471-82.823,81.656
	c-0.185,26.155,11.841,49.504,30.712,64.696c-1.799,9.132-5.445,20.287-12.824,29.228c-2.18,2.642-0.072,6.56,3.327,6.139
	c3.797-0.47,8.033-1.282,12.547-2.636c5.287-1.586,18.628-5.767,29.834-16.703c6.667,1.546,13.645,2.283,20.825,2.098
	c43.762-1.127,79.275-36.924,80.071-80.693C303.527,58.669,266.697,21.132,221.023,20.822z"/>
<path style="fill:#AFB9D2;" d="M215.938,103.661c0.553,30.374,15.86,57.357,39.03,74.01c27.693-12.915,47.137-40.816,47.723-73.064
	c0.628-34.521-20.017-64.294-49.7-77.094C230.048,44.853,215.372,72.555,215.938,103.661z"/>
<path style="fill:#E4EAF5;" d="M308.572,20.822c45.185-0.308,82.503,36.471,82.823,81.656c0.185,26.155-11.841,49.504-30.712,64.696
	c1.799,9.132,5.445,20.287,12.824,29.228c2.18,2.642,0.072,6.56-3.327,6.139c-3.797-0.47-8.033-1.282-12.547-2.636
	c-5.287-1.586-18.628-5.767-29.834-16.703c-6.667,1.546-13.645,2.283-20.825,2.098c-43.762-1.127-79.275-36.924-80.071-80.693
	C226.067,58.669,262.898,21.132,308.572,20.822z"/>
<path style="fill:#BBD7FF;" d="M201.051,415.738l-75.402-11.456l-72.843,11.324C26.731,419.66,7.5,442.111,7.5,468.499v22.681
	h239.038v-22.521C246.539,442.201,227.208,419.712,201.051,415.738z"/>
<polygon style="fill:#5B5D6E;" points="136.888,459.93 119.344,459.93 115.506,491.181 140.726,491.181 "/>
<path style="fill:#515262;" d="M141.822,449.514c0,7.57-6.137,13.706-13.706,13.706l0,0c-7.57,0-13.706-6.137-13.706-13.706v-9.046
	h27.413v9.046H141.822z"/>
<polygon style="fill:#F4AB98;" points="170.057,440.467 88.368,440.467 82.726,383.488 173.494,382.625 "/>
<path style="fill:#F29D86;" d="M172.376,401.435l-3.598,4.584c-8.593,5.546-16.388,7.599-21.884,8.407
	c-35.252,5.18-62.039-28.211-64.161-30.938l90.767-0.863L172.376,401.435z"/>
<path style="fill:#F7B89C;" d="M168.647,387.236l-22.763,12.77c-5,2.805-10.636,4.278-16.368,4.278h-3.988
	c-5.674,0-11.255-1.443-16.218-4.194l-23.241-12.881c-9.07-5.026-14.697-14.579-14.697-24.948v-93.944h111.844v94.043
	C183.216,372.676,177.645,382.188,168.647,387.236z"/>
<path style="fill:#F4AB98;" d="M164.039,268.316l-2.206-4.66l-67.435,2.741c0,0,3.564,9.594,7.558,15.077
	c3.994,5.483,17.662,10.965,28.353,12.062c0.57,0.058,1.184,0.121,1.835,0.188c16.84,1.72,29.651,15.903,29.651,32.831v31.929
	c0,10.317-5.571,19.829-14.568,24.877l-22.763,12.77c-4.499,2.524-9.513,3.965-14.649,4.229c4.836,2.573,10.23,3.925,15.714,3.925
	h3.988c5.732,0,11.369-1.473,16.368-4.278l22.763-12.77c8.998-5.047,14.568-14.56,14.568-24.877v-94.043h-19.177V268.316z"/>
<path style="fill:#515262;" d="M150.791,224.476l-42.718-2.923c-7.383-0.505-13.638,5.371-13.595,12.771l0,0
	c-23.056,0-41.746,18.691-41.746,41.746v13.835c0,2.036,0.382,4.054,1.125,5.95l17.516,25.092l0,0v-24.946h3.557
	c12.4,0,22.452-10.052,22.452-22.452l0,0l0,0c4.869,6.159,12.401,10.117,20.862,10.117h44.736c11.176,0,20.237,9.06,20.237,20.237
	v17.136v-0.091l14.102-20.658c0.828-2.661,1.249-5.431,1.249-8.217v-16.441C198.567,248.672,177.688,226.317,150.791,224.476z"/>
<path style="fill:#464754;" d="M150.791,224.476l-42.718-2.923c-7.383-0.505-13.638,5.371-13.595,12.771l0,0
	c-5.562,10.143-6.658,25.768,2.903,39.226l0,0l0,0c4.869,6.159,12.401,10.117,20.862,10.117h44.736
	c11.176,0,20.237,9.06,20.237,20.237v17.136v-0.091l14.102-20.658c0.828-2.661,1.249-5.431,1.249-8.217v-16.441
	C198.567,248.672,177.688,226.317,150.791,224.476z"/>
<g>
	<path style="fill:#373842;" d="M92.73,283.667c-1.904,0-4.007-0.512-6.123-1.306c-7.057-2.647-14.982-0.57-19.721,5.291
		c-3.192,3.948-7.695,6.791-12.847,7.87c-0.074,0.136-0.108,0.198-0.182,0.334l17.516,25.092l0,0v-24.946h3.557
		c8.759,0,16.342-5.019,20.042-12.336L92.73,283.667L92.73,283.667z"/>
	<path style="fill:#373842;" d="M150.791,224.476l-42.718-2.923c-2.347-0.161-4.579,0.326-6.531,1.299l23.737,1.624
		c26.897,1.84,47.776,24.196,47.776,51.156v10.724c6.071,3.493,10.161,10.041,10.161,17.547v17.136v-0.091l14.102-20.658
		c0.828-2.661,1.249-5.431,1.249-8.217v-16.441C198.567,248.672,177.688,226.317,150.791,224.476z"/>
</g>
<g>
	<path style="fill:#859FFF;" d="M84.868,402.158l42.888,38.31l-27.487,20.218c-1.893,1.445-4.637,0.778-5.654-1.375l-22.098-46.768
		l7.739-9.965C81.381,401.128,83.499,400.935,84.868,402.158z"/>
	<path style="fill:#859FFF;" d="M170.818,402.188l-43.062,38.28l27.707,20.218c1.893,1.445,4.637,0.778,5.654-1.375l22.098-46.282
		l-7.755-10.371C174.349,401.172,172.205,400.955,170.818,402.188z"/>
	<path style="fill:#859FFF;" d="M50.155,462.73c0-16.195-12.687-29.425-28.664-30.3C12.758,442.005,7.5,454.712,7.5,468.499v22.681
		h42.655V462.73z"/>
	<path style="fill:#859FFF;" d="M204.78,459.263v31.918h41.759V468.66c0-13.89-5.334-26.681-14.18-36.279h-0.696
		C216.816,432.382,204.78,444.416,204.78,459.263z"/>
</g>
<path style="fill:#BBD7FF;" d="M459.012,415.738l-75.402-11.456l-72.842,11.324c-26.075,4.053-45.306,26.505-45.306,52.893v22.681
	H504.5V468.66C504.5,442.201,485.17,419.712,459.012,415.738z"/>
<polygon style="fill:#5B5D6E;" points="394.85,459.93 377.306,459.93 373.468,491.181 398.687,491.181 "/>
<path style="fill:#515262;" d="M399.784,449.514c0,7.57-6.137,13.706-13.706,13.706l0,0c-7.57,0-13.706-6.137-13.706-13.706v-9.046
	h27.413v9.046H399.784z"/>
<polygon style="fill:#F4AB98;" points="428.019,440.467 346.329,440.467 340.688,383.488 431.455,382.625 "/>
<path style="fill:#F29D86;" d="M430.338,401.435l-3.598,4.584c-8.593,5.546-16.388,7.599-21.884,8.407
	c-35.252,5.18-62.039-28.211-64.161-30.938l90.767-0.863L430.338,401.435z"/>
<path style="fill:#F7B89C;" d="M426.609,387.236l-22.763,12.77c-5,2.805-10.636,4.278-16.368,4.278h-3.988
	c-5.674,0-11.255-1.443-16.218-4.194l-23.241-12.881c-9.07-5.026-14.697-14.579-14.697-24.948v-93.944h111.844v94.043
	C441.177,372.676,435.606,382.188,426.609,387.236z"/>
<path style="fill:#F4AB98;" d="M422.001,268.316l-2.206-4.66l-67.435,2.741c0,0,3.564,9.594,7.558,15.077
	c3.994,5.483,17.662,10.965,28.353,12.062c0.57,0.058,1.184,0.121,1.835,0.188c16.84,1.72,29.651,15.903,29.651,32.831v31.929
	c0,10.317-5.571,19.829-14.568,24.877l-22.763,12.77c-4.499,2.524-9.513,3.965-14.649,4.229c4.836,2.573,10.23,3.925,15.714,3.925
	h3.988c5.732,0,11.369-1.473,16.368-4.278l22.763-12.77c8.998-5.047,14.568-14.56,14.568-24.877v-94.043h-19.177V268.316z"/>
<path style="fill:#515262;" d="M408.753,224.476l-42.718-2.923c-7.383-0.505-13.638,5.371-13.595,12.771l0,0
	c-23.056,0-41.746,18.691-41.746,41.746v13.835c0,2.036,0.382,4.054,1.125,5.95l17.516,25.092l0,0v-24.946h3.557
	c12.4,0,22.452-10.052,22.452-22.452l0,0l0,0c4.869,6.159,12.401,10.117,20.862,10.117h44.736c11.176,0,20.237,9.06,20.237,20.237
	v17.136v-0.091l14.102-20.658c0.828-2.661,1.249-5.431,1.249-8.217v-16.441C456.528,248.672,435.65,226.317,408.753,224.476z"/>
<path style="fill:#464754;" d="M408.753,224.476l-42.718-2.923c-7.383-0.505-13.638,5.371-13.595,12.771l0,0
	c-5.562,10.143-6.658,25.768,2.903,39.226l0,0l0,0c4.869,6.159,12.401,10.117,20.862,10.117h44.736
	c11.176,0,20.237,9.06,20.237,20.237v17.136v-0.091l14.102-20.658c0.828-2.661,1.249-5.431,1.249-8.217v-16.441
	C456.528,248.672,435.65,226.317,408.753,224.476z"/>
<g>
	<path style="fill:#373842;" d="M350.692,283.667c-1.904,0-4.007-0.512-6.123-1.306c-7.057-2.647-14.982-0.57-19.721,5.291
		c-3.192,3.948-7.695,6.791-12.847,7.87c-0.074,0.136-0.108,0.198-0.182,0.334l17.516,25.092l0,0v-24.946h3.557
		c8.759,0,16.342-5.019,20.042-12.336L350.692,283.667L350.692,283.667z"/>
	<path style="fill:#373842;" d="M408.753,224.476l-42.718-2.923c-2.347-0.161-4.579,0.326-6.531,1.299l23.737,1.624
		c26.897,1.84,47.776,24.196,47.776,51.156v10.724c6.071,3.493,10.161,10.041,10.161,17.547v17.136v-0.091l14.102-20.658
		c0.828-2.661,1.249-5.431,1.249-8.217v-16.441C456.528,248.672,435.65,226.317,408.753,224.476z"/>
</g>
<g>
	<path style="fill:#859FFF;" d="M342.83,402.158l42.888,38.31l-27.487,20.218c-1.893,1.445-4.637,0.778-5.654-1.375l-22.098-46.768
		l7.739-9.965C339.343,401.128,341.461,400.935,342.83,402.158z"/>
	<path style="fill:#859FFF;" d="M428.78,402.188l-43.062,38.28l27.707,20.218c1.893,1.445,4.637,0.778,5.654-1.375l22.098-46.282
		l-7.755-10.371C432.311,401.172,430.166,400.955,428.78,402.188z"/>
	<path style="fill:#859FFF;" d="M308.116,462.73c0-16.195-12.687-29.425-28.664-30.3c-8.733,9.576-13.991,22.282-13.991,36.07
		v22.681h42.655V462.73z"/>
	<path style="fill:#859FFF;" d="M462.742,459.263v31.918H504.5V468.66c0-13.89-5.334-26.681-14.18-36.279h-0.696
		C474.777,432.382,462.742,444.416,462.742,459.263z"/>
</g>
<path d="M231.775,421.52c-3.196-2.632-7.923-2.175-10.558,1.024c-2.632,3.198-2.174,7.925,1.024,10.557
	c10.675,8.787,16.797,21.747,16.797,35.558v15.021H147.36l-2.58-21.009c0.116-0.147,0.236-0.289,0.348-0.44l9.459,7.223
	c1.32,1.008,2.923,1.539,4.552,1.539c0.592,0,1.187-0.07,1.772-0.212c2.2-0.535,4.041-2.036,5.009-4.083l21.475-45.448l12.527,1.903
	c0.383,0.058,0.762,0.086,1.137,0.086c3.644,0,6.841-2.661,7.405-6.375c0.622-4.095-2.193-7.919-6.288-8.542l-14.447-2.195
	l-7.544-9.714l0.546-9.197c6.301-6.609,9.982-15.474,9.982-24.859v-39.012l12.806-18.841c0.416-0.612,0.739-1.282,0.959-1.989
	c1.052-3.385,1.586-6.899,1.586-10.444V275.63c0-30.78-24.055-56.538-54.764-58.639l-42.717-2.923
	c-5.6-0.382-11.145,1.599-15.23,5.437c-2.293,2.154-4.031,4.805-5.109,7.708c-24.225,3.071-43.015,23.809-43.015,48.854v13.835
	c0,2.985,0.553,5.908,1.643,8.688c0.215,0.549,0.495,1.071,0.833,1.555l16.165,23.157v38.954c0,10.32,4.435,19.996,11.916,26.743
	l0.719,6.185c-0.03,0.037-0.065,0.071-0.094,0.109l-7.993,10.292l-16.766,2.606C21.724,412.848,0,438.21,0,468.499v22.682
	c0,4.142,3.357,7.5,7.5,7.5h108.006h25.22h105.813c4.143,0,7.5-3.358,7.5-7.5V468.66
	C254.039,450.348,245.924,433.167,231.775,421.52z M101.739,286.892c4.893,2.72,10.519,4.275,16.503,4.275h44.736
	c7.023,0,12.737,5.714,12.737,12.737v17.094c0,0.01,0,0.02,0,0.031v0.012l0,0l0,0v41.319c0,7.594-4.114,14.62-10.737,18.336
	l-22.764,12.77c-3.87,2.171-8.262,3.318-12.699,3.318h-3.987c-4.391,0-8.742-1.125-12.582-3.253L89.704,380.65
	c-0.658-0.365-1.283-0.77-1.89-1.197c-0.302-0.264-0.623-0.506-0.963-0.719c-4.984-3.948-7.979-9.992-7.979-16.473v-41.312v-17.704
	C88.904,301.919,97.384,295.608,101.739,286.892z M127.866,431.333l-34.462-31.484l12.271,6.801
	c6.06,3.358,12.925,5.133,19.854,5.133h3.987c7.002,0,13.931-1.811,20.037-5.236l14.106-7.912L127.866,431.333z M83.277,410.914
	l31.784,29.038l-15.65,11.952l-18.146-38.401L83.277,410.914z M122.886,452.852l4.979-3.803l5.302,4.048
	c-1.135,1.585-2.992,2.623-5.051,2.623C125.923,455.72,123.991,454.579,122.886,452.852z M156.321,451.905l-15.651-11.952
	l31.785-29.038l2.012,2.589L156.321,451.905z M60.231,289.906v-13.835c0-18.884,15.362-34.247,34.246-34.247
	c1.997,0,3.911-0.796,5.318-2.212c1.408-1.416,2.193-3.335,2.182-5.332c-0.009-1.47,0.576-2.833,1.647-3.839
	c1.072-1.007,2.467-1.502,3.937-1.405l42.718,2.923c22.871,1.565,40.787,20.749,40.787,43.674v16.441
	c0,1.689-0.211,3.366-0.629,4.999l-0.429,0.631c-2.825-12.318-13.868-21.537-27.03-21.537h-44.736
	c-10.523,0-19.085-8.562-19.085-19.085v-3.02c0-4.142-3.357-7.5-7.5-7.5s-7.5,3.358-7.5,7.5v3.02c0,6.865,2.047,13.257,5.552,18.612
	c-1.045,7.23-7.265,12.809-14.78,12.809h-3.557c-4.143,0-7.5,3.358-7.5,7.5v1.098l-3.278-4.697
	C60.353,291.594,60.231,290.757,60.231,289.906z M15,468.499c0-22.845,16.385-41.973,38.959-45.482l14.171-2.203l21.68,45.884
	c0.968,2.047,2.809,3.548,5.009,4.083c0.586,0.143,1.181,0.212,1.772,0.212c1.629,0,3.231-0.531,4.552-1.539l9.803-7.486
	c0.161,0.221,0.342,0.426,0.511,0.641l-2.588,21.071H15V468.499z M123.983,483.681l1.612-13.126
	c0.829,0.098,1.667,0.165,2.521,0.165c0.855,0,1.692-0.066,2.521-0.162l1.611,13.123H123.983z"/>
<circle cx="101.96" cy="330.86" r="7.599"/>
<circle cx="154.28" cy="330.641" r="7.599"/>
<path d="M109.692,365.309c4.707,5.442,11.53,8.563,18.721,8.563c6.81,0,13.154-2.708,17.867-7.625
	c2.904-3.03,2.801-7.841-0.229-10.745c-3.031-2.904-7.841-2.802-10.745,0.229c-1.819,1.898-4.267,2.943-6.894,2.943
	c-2.775,0-5.407-1.205-7.225-3.307c-2.745-3.174-7.544-3.521-10.719-0.777C107.294,357.335,106.947,362.134,109.692,365.309z"/>
<path d="M489.237,421.115c-3.228-2.601-7.946-2.09-10.546,1.135c-2.599,3.226-2.09,7.947,1.136,10.545
	C490.74,441.587,497,454.659,497,468.66v15.021h-91.677l-2.58-21.009c0.116-0.147,0.237-0.29,0.349-0.44l9.459,7.223
	c1.32,1.008,2.923,1.539,4.552,1.539c0.592,0,1.187-0.07,1.772-0.212c2.2-0.535,4.041-2.036,5.009-4.083l21.474-45.448l12.527,1.903
	c0.383,0.058,0.762,0.086,1.137,0.086c3.644,0,6.841-2.661,7.405-6.375c0.622-4.095-2.193-7.919-6.288-8.542l-14.447-2.195
	l-7.543-9.713l0.546-9.199c6.301-6.609,9.981-15.474,9.981-24.858v-39.012l12.806-18.841c0.415-0.611,0.738-1.281,0.958-1.986
	c1.054-3.385,1.588-6.899,1.588-10.446v-16.441c0-30.78-24.055-56.538-54.764-58.639l-42.718-2.923
	c-5.594-0.383-11.144,1.598-15.229,5.437c-2.293,2.154-4.031,4.806-5.109,7.709c-24.225,3.071-43.016,23.809-43.016,48.854v13.835
	c0,2.985,0.553,5.908,1.643,8.688c0.215,0.549,0.495,1.071,0.833,1.555l16.165,23.157v38.954c0,10.32,4.435,19.995,11.917,26.743
	l0.719,6.185c-0.03,0.037-0.064,0.07-0.094,0.108l-7.993,10.292l-16.767,2.607c-29.93,4.653-51.653,30.014-51.653,60.304v22.682
	c0,4.142,3.357,7.5,7.5,7.5h108.006h25.22H504.5c4.143,0,7.5-3.358,7.5-7.5v-22.52C512,450.098,503.703,432.767,489.237,421.115z
	 M359.7,286.892c4.893,2.72,10.519,4.275,16.504,4.275h44.736c7.022,0,12.736,5.714,12.736,12.737v17.094c0,0.01,0,0.02,0,0.031
	v0.012l0,0l0,0v41.319c0,7.595-4.114,14.621-10.737,18.336l-22.763,12.77c-3.87,2.171-8.262,3.318-12.7,3.318h-3.987
	c-4.391,0-8.742-1.125-12.582-3.253l-23.241-12.881c-0.66-0.366-1.288-0.773-1.896-1.201c-0.3-0.261-0.616-0.501-0.953-0.711
	c-4.987-3.948-7.983-9.994-7.983-16.475v-41.312v-17.704C346.865,301.919,355.345,295.608,359.7,286.892z M385.828,431.333
	l-34.462-31.484l12.27,6.8c6.06,3.358,12.925,5.133,19.854,5.133h3.987c7.002,0,13.932-1.811,20.038-5.236l14.105-7.913
	L385.828,431.333z M341.239,410.914l31.784,29.038l-15.651,11.952l-18.145-38.401L341.239,410.914z M380.847,452.852l4.98-3.803
	l5.302,4.048c-1.135,1.585-2.993,2.623-5.052,2.623C383.884,455.72,381.952,454.579,380.847,452.852z M414.283,451.905
	l-15.651-11.952l31.784-29.038l2.012,2.589L414.283,451.905z M318.192,289.906v-13.835c0-18.884,15.363-34.247,34.247-34.247
	c1.997,0,3.911-0.796,5.318-2.212c1.408-1.416,2.193-3.335,2.182-5.332c-0.009-1.47,0.576-2.833,1.648-3.84
	c1.07-1.006,2.457-1.508,3.935-1.405l42.719,2.923c22.871,1.565,40.787,20.749,40.787,43.674v16.441
	c0,1.689-0.211,3.366-0.629,4.998l-0.43,0.633c-2.825-12.318-13.867-21.537-27.029-21.537h-44.736
	c-10.523,0-19.085-8.562-19.085-19.085v-3.02c0-4.142-3.357-7.5-7.5-7.5s-7.5,3.358-7.5,7.5v3.02c0,6.864,2.046,13.256,5.551,18.611
	c-1.045,7.231-7.265,12.81-14.781,12.81h-3.557c-4.143,0-7.5,3.358-7.5,7.5v1.098l-3.278-4.697
	C318.313,291.594,318.192,290.757,318.192,289.906z M272.962,468.499c0-22.845,16.384-41.973,38.958-45.482l14.172-2.203
	l21.68,45.884c0.968,2.047,2.809,3.548,5.009,4.083c0.586,0.143,1.181,0.212,1.772,0.212c1.629,0,3.231-0.531,4.552-1.539
	l9.804-7.486c0.161,0.222,0.343,0.427,0.512,0.642l-2.588,21.07h-93.87L272.962,468.499L272.962,468.499z M381.945,483.681
	l1.612-13.126c0.828,0.098,1.666,0.165,2.52,0.165c0.855,0,1.693-0.066,2.521-0.162l1.612,13.123H381.945z"/>
<circle cx="359.92" cy="330.86" r="7.599"/>
<circle cx="412.24" cy="330.641" r="7.599"/>
<path d="M367.653,365.309c4.707,5.442,11.53,8.563,18.721,8.563c6.81,0,13.154-2.708,17.867-7.625
	c2.904-3.03,2.801-7.841-0.229-10.745c-3.031-2.904-7.841-2.802-10.745,0.229c-1.818,1.898-4.267,2.943-6.894,2.943
	c-2.774,0-5.407-1.205-7.225-3.307c-2.745-3.174-7.544-3.521-10.719-0.777C365.256,357.335,364.908,362.134,367.653,365.309z"/>
<path d="M160.6,169.954c-1.733,6.804-4.821,15.039-10.296,21.674c-2.969,3.596-3.442,8.551-1.208,12.623
	c1.996,3.636,5.752,5.821,9.827,5.821c0.467,0,0.939-0.029,1.413-0.087c4.662-0.577,9.299-1.551,13.781-2.896
	c4.593-1.378,17.845-5.355,29.911-15.763c6.164,1.14,12.473,1.633,18.785,1.472c14.758-0.38,29.168-4.44,41.975-11.766
	c12.721,7.29,27.072,11.382,41.993,11.766c6.313,0.161,12.621-0.332,18.784-1.472c12.066,10.408,25.317,14.385,29.911,15.763
	c4.48,1.345,9.117,2.319,13.78,2.896c0.475,0.059,0.946,0.087,1.414,0.087c4.075,0,7.831-2.186,9.826-5.821
	c2.235-4.072,1.762-9.027-1.206-12.623c-5.476-6.635-8.563-14.87-10.297-21.674c19.242-17.2,30.084-41.552,29.899-67.529
	c-0.351-49.469-40.897-89.48-90.374-89.103c-24.159,0.165-46.759,9.785-63.636,27.089c-8.226,8.434-14.576,18.195-18.89,28.779
	h-38.958c-4.143,0-7.5,3.358-7.5,7.5s3.357,7.5,7.5,7.5h34.354c-0.984,4.619-1.605,9.339-1.853,14.13h-35.293
	c-4.143,0-7.5,3.358-7.5,7.5s3.357,7.5,7.5,7.5h35.727c0.55,4.804,1.507,9.522,2.813,14.13h-35.747c-4.143,0-7.5,3.358-7.5,7.5
	s3.357,7.5,7.5,7.5h41.497c4.27,8.681,9.962,16.715,16.969,23.776c1.755,1.768,3.583,3.438,5.455,5.042
	c-8.963,4.039-18.654,6.279-28.53,6.534c-6.396,0.165-12.772-0.477-18.938-1.907c-2.492-0.578-5.103,0.153-6.933,1.938
	c-10.151,9.907-22.645,13.655-26.75,14.887c-0.842,0.252-1.69,0.489-2.545,0.71c4.128-7.055,7.147-15.362,9.008-24.808
	c0.539-2.735-0.483-5.543-2.655-7.292c-17.902-14.414-28.077-35.846-27.914-58.801c0.29-41.029,33.774-74.211,74.756-74.211
	c0.171,0,0.346,0,0.517,0.002c3.513,0.023,7.043,0.293,10.494,0.803c4.089,0.611,7.91-2.226,8.515-6.325
	c0.604-4.098-2.228-7.91-6.325-8.514c-4.14-0.611-8.373-0.936-12.582-0.964c-0.208-0.001-0.412-0.002-0.62-0.002
	c-49.199,0-89.405,39.845-89.754,89.105C130.516,128.402,141.357,152.754,160.6,169.954z M240.343,132.248
	c-0.051-0.132-0.104-0.262-0.163-0.39c-3.617-8.602-5.604-17.865-5.778-27.387c-0.367-20.148,7.17-39.179,21.221-53.586
	c14.058-14.413,32.879-22.425,52.999-22.562c0.174-0.001,0.344-0.002,0.518-0.002c40.978,0,74.465,33.185,74.755,74.211
	c0.163,22.955-10.012,44.387-27.914,58.801c-2.172,1.748-3.194,4.556-2.655,7.292c1.86,9.446,4.88,17.752,9.008,24.808
	c-0.854-0.221-1.703-0.457-2.545-0.71c-4.105-1.232-16.599-4.98-26.75-14.887c-1.417-1.382-3.303-2.132-5.238-2.132
	c-0.564,0-1.133,0.063-1.694,0.194c-6.165,1.43-12.54,2.077-18.938,1.907c-19.224-0.495-37.342-8.358-51.018-22.141
	C249.35,148.807,244.025,140.865,240.343,132.248z"/>
<path d="M269.462,82.923h82.558c4.143,0,7.5-3.358,7.5-7.5s-3.357-7.5-7.5-7.5h-82.558c-4.143,0-7.5,3.358-7.5,7.5
	S265.319,82.923,269.462,82.923z"/>
<path d="M269.462,112.053h82.558c4.143,0,7.5-3.358,7.5-7.5s-3.357-7.5-7.5-7.5h-82.558c-4.143,0-7.5,3.358-7.5,7.5
	S265.319,112.053,269.462,112.053z"/>
<path d="M269.462,141.183h42.617c4.143,0,7.5-3.358,7.5-7.5s-3.357-7.5-7.5-7.5h-42.617c-4.143,0-7.5,3.358-7.5,7.5
	S265.319,141.183,269.462,141.183z"/>
<g>
</g>
<g>
</g>
<g>
</g>
<g>
</g>
<g>
</g>
<g>
</g>
<g>
</g>
<g>
</g>
<g>
</g>
<g>
</g>
<g>
</g>
<g>
</g>
<g>
</g>
<g>
</g>
<g>
</g>
</svg>
