<?xml version="1.0" encoding="iso-8859-1"?>
<!-- Generator: Adobe Illustrator 19.0.0, SVG Export Plug-In . SVG Version: 6.00 Build 0)  -->
<svg version="1.1" id="Capa_1" xmlns="http://www.w3.org/2000/svg" xmlns:xlink="http://www.w3.org/1999/xlink" x="0px" y="0px"
	 viewBox="0 0 480 480" style="enable-background:new 0 0 480 480;" xml:space="preserve">
<g>
	<g>
		<path d="M464,464V120c0-4.416-3.576-8-8-8h-64c-4.424,0-8,3.584-8,8v344h-40V168c0-4.416-3.576-8-8-8h-64c-4.424,0-8,3.584-8,8
			v296h-48V216c0-4.416-3.576-8-8-8h-64c-4.424,0-8,3.584-8,8v248H96V264c0-4.416-3.576-8-8-8H24c-4.424,0-8,3.584-8,8v200H0v16h24
			h64h56h64h64h64h56h64h24v-16H464z M80,464H32V272h48V464z M200,464h-48V224h48V464z M328,464h-48V176h48V464z M448,464h-48V128
			h48V464z"/>
	</g>
</g>
<g>
	<g>
		<path d="M424,0c-13.232,0-24,10.768-24,24c0,0.32,0.08,0.624,0.096,0.944l-78.16,31.264C317.528,51.216,311.16,48,304,48
			c-13.232,0-24,10.768-24,24c0,1.4,0.184,2.752,0.416,4.088l-88.72,49.904C187.48,122.312,182.024,120,176,120
			c-13.232,0-24,10.768-24,24c0,1.216,0.184,2.376,0.36,3.544l-80.24,42.792C67.848,186.44,62.224,184,56,184
			c-13.232,0-24,10.768-24,24s10.768,24,24,24s24-10.768,24-24c0-1.216-0.184-2.376-0.36-3.544l80.24-42.792
			C164.152,165.56,169.776,168,176,168c13.232,0,24-10.768,24-24c0-1.4-0.184-2.752-0.416-4.088l88.72-49.904
			C292.52,93.688,297.976,96,304,96c10.968,0,20.144-7.44,22.992-17.504l0.04,0.008c0.04-0.144,0.056-0.28,0.096-0.424
			c0.2-0.744,0.368-1.488,0.488-2.264C327.848,74.512,328,73.232,328,72c0-0.328-0.008-0.648-0.024-0.976l78.088-31.232
			C410.472,44.784,416.84,48,424,48c13.232,0,24-10.768,24-24S437.232,0,424,0z M56,216c-4.416,0-8-3.592-8-8s3.584-8,8-8
			s8,3.592,8,8S60.416,216,56,216z M176,152c-4.416,0-8-3.592-8-8s3.584-8,8-8c3.08,0,5.68,1.808,7.016,4.36
			c0.224,0.416,0.36,0.816,0.496,1.2c0.248,0.784,0.488,1.576,0.488,2.44C184,148.408,180.416,152,176,152z M304,80
			c-4.416,0-8-3.592-8-8s3.584-8,8-8c4.416,0,8,3.592,8,8S308.416,80,304,80z M424,32c-4.416,0-8-3.592-8-8s3.584-8,8-8
			c4.416,0,8,3.592,8,8S428.416,32,424,32z"/>
	</g>
</g>
<g>
</g>
<g>
</g>
<g>
</g>
<g>
</g>
<g>
</g>
<g>
</g>
<g>
</g>
<g>
</g>
<g>
</g>
<g>
</g>
<g>
</g>
<g>
</g>
<g>
</g>
<g>
</g>
<g>
</g>
</svg>
