<?xml version="1.0" encoding="iso-8859-1"?>
<!-- Generator: Adobe Illustrator 19.0.0, SVG Export Plug-In . SVG Version: 6.00 Build 0)  -->
<svg version="1.1" id="Capa_1" xmlns="http://www.w3.org/2000/svg" xmlns:xlink="http://www.w3.org/1999/xlink" x="0px" y="0px"
	 viewBox="0 0 480 480" style="enable-background:new 0 0 480 480;" xml:space="preserve">
<g>
	<g>
		<path d="M440,0H56C33.944,0,16,17.944,16,40v300.232C5.944,354.648,0,372.128,0,391c0,49.072,39.928,89,89,89
			c46.04,0,84.016-35.136,88.544-80H256v32c0,17.648,14.352,32,32,32s32-14.352,32-32v-32h120c22.056,0,40-17.944,40-40V40
			C480,17.944,462.056,0,440,0z M161.96,391.912c0,0.008,0,0.016,0,0.024C161.448,431.752,128.944,464,89,464
			c-40.256,0-73-32.744-73-73c0-16.408,5.512-31.52,14.68-43.728c1.544-2.056,3.184-4.008,4.904-5.864
			c0.224-0.24,0.44-0.496,0.672-0.736c1.736-1.832,3.568-3.56,5.464-5.184c0.208-0.176,0.392-0.368,0.592-0.544
			c1.976-1.664,4.048-3.192,6.168-4.624c0.952-0.64,1.96-1.192,2.944-1.792c1.184-0.72,2.36-1.432,3.584-2.08
			c1.2-0.632,2.44-1.208,3.68-1.776c0.536-0.248,1.072-0.464,1.616-0.696c1.848-0.792,3.72-1.528,5.608-2.168
			c0.712-0.24,1.432-0.432,2.152-0.648c1.712-0.52,3.44-1.008,5.176-1.4c0.008,0,0.008,0,0.016-0.008
			c1.24-0.272,2.504-0.456,3.768-0.664c1.136-0.192,2.272-0.408,3.416-0.544c0.176-0.024,0.352-0.064,0.528-0.08
			C83.616,318.176,86.288,318,89,318c3.288,0,6.512,0.296,9.704,0.72c0.856,0.112,1.704,0.248,2.552,0.392
			c2.776,0.472,5.512,1.08,8.184,1.856c0.408,0.12,0.832,0.192,1.24,0.32c2.824,0.872,5.544,1.984,8.224,3.192
			c1.048,0.472,2.072,0.968,3.088,1.488c1.896,0.96,3.728,2.016,5.528,3.136c1.272,0.8,2.528,1.616,3.752,2.488
			c1.768,1.256,3.488,2.592,5.136,4.008c1.008,0.864,1.992,1.768,2.952,2.68c1.544,1.48,3.024,3.024,4.44,4.64
			c0.824,0.936,1.632,1.88,2.408,2.856c1.584,2.008,3.064,4.096,4.44,6.28c0.496,0.784,0.976,1.568,1.44,2.376
			c1.584,2.736,3.056,5.544,4.296,8.52c2.696,6.456,4.504,13.368,5.248,20.592c0.248,2.432,0.376,4.896,0.376,7.392
			C162,391.104,161.968,391.744,161.96,391.912z M256,384h-78.272c-0.032-0.36-0.104-0.712-0.136-1.072
			c-0.12-1.328-0.32-2.632-0.496-3.944c-0.216-1.584-0.424-3.168-0.72-4.72c-0.248-1.296-0.56-2.56-0.864-3.84
			c-0.2-0.8-0.344-1.624-0.552-2.424H256V384z M256,352h-87c-0.016-0.04-0.04-0.08-0.064-0.12c-0.024-0.048-0.048-0.088-0.072-0.136
			c-0.368-0.752-0.784-1.464-1.168-2.208c-0.264-0.504-0.528-1.016-0.808-1.512c-0.56-1.016-1.128-2.016-1.72-3
			c-0.176-0.288-0.352-0.568-0.528-0.848c-1.328-2.144-2.728-4.224-4.216-6.232c-0.008-0.008-0.016-0.024-0.024-0.04
			c-9.488-12.8-22.168-22.72-36.688-28.856c-0.088-0.04-0.176-0.072-0.272-0.112c-0.344-0.144-0.688-0.28-1.04-0.424
			c-0.2-0.08-0.4-0.168-0.6-0.248c-1.92-0.76-3.864-1.448-5.832-2.072c-0.272-0.088-0.536-0.184-0.816-0.264
			c-2.624-0.8-5.28-1.496-7.992-2.056c-0.216-0.048-0.432-0.08-0.648-0.128c-0.52-0.104-1.056-0.176-1.584-0.272
			c-1.88-0.336-3.784-0.624-5.704-0.84c-0.456-0.056-0.896-0.144-1.352-0.184c-0.36-0.04-0.728-0.04-1.088-0.072
			c-2.576-0.224-5.168-0.376-7.792-0.376c-2.904,0-5.768,0.168-8.616,0.44c-0.744,0.072-1.472,0.2-2.208,0.288
			c-0.256,0.032-0.504,0.064-0.76,0.104c-0.6,0.08-1.2,0.144-1.8,0.24c-1.272,0.192-2.536,0.392-3.792,0.64
			c-0.712,0.136-1.408,0.312-2.112,0.472c-1.92,0.424-3.824,0.888-5.704,1.432V224h72c3.16,0,6.024-1.864,7.312-4.752L168,163.696
			l8.392,18.888C176.136,185.736,176,188.888,176,192c0,3.352,0.208,6.68,0.504,10c0.096,1.056,0.208,2.104,0.336,3.144
			c0.28,2.376,0.648,4.736,1.08,7.08c0.184,1.016,0.328,2.048,0.544,3.056c0.6,2.808,1.336,5.584,2.152,8.336
			c0.464,1.568,0.992,3.104,1.528,4.648c0.472,1.36,0.968,2.72,1.488,4.064c0.648,1.672,1.296,3.344,2.024,4.976
			c0.424,0.96,0.912,1.888,1.368,2.832c1.52,3.168,3.168,6.248,4.968,9.248c0.424,0.704,0.8,1.432,1.24,2.128l0.04-0.024
			c12.832,20.352,31.984,36.264,54.728,45.008V312c0,7.064,3.128,13.36,8,17.76V352z M398.72,208c0.752-5.24,1.28-10.552,1.28-16
			c0-61.76-50.24-112-112-112c-49.136,0-90.88,31.848-105.936,75.944l-6.752-15.192C174.024,137.864,171.16,136,168,136
			c-3.16,0-6.024,1.864-7.312,4.752L130.8,208H64V48h368v160H398.72z M432,224v128H320v-22.24c4.872-4.392,8-10.696,8-17.76v-15.512
			c18.072-6.944,33.936-18.344,46.112-32.976l0.04,0.032c2.744-3.304,5.232-6.808,7.584-10.424
			c5.832-8.912,10.432-18.688,13.552-29.12H432z M304,360v32v40c0,8.824-7.176,16-16,16c-8.824,0-16-7.176-16-16v-40v-32v-24h32V360
			z M312,312c0,3.08-1.808,5.68-4.368,7.016c-0.36,0.192-0.72,0.336-1.08,0.464c-0.816,0.28-1.648,0.52-2.552,0.52h-32
			c-0.904,0-1.736-0.24-2.552-0.52c-0.36-0.136-0.728-0.28-1.08-0.464C265.808,317.68,264,315.08,264,312v-10.624
			c0.12,0.024,0.24,0.032,0.36,0.056c3.4,0.736,6.864,1.288,10.368,1.704c0.456,0.056,0.896,0.16,1.352,0.208
			C280,303.76,283.968,304,288,304c4.032,0,8-0.24,11.92-0.656c0.456-0.048,0.904-0.152,1.36-0.208
			c3.504-0.416,6.96-0.968,10.36-1.704c0.12-0.024,0.24-0.032,0.36-0.056V312z M317.368,283.368c-1.328,0.424-2.68,0.76-4.016,1.128
			c-1.408,0.384-2.824,0.776-4.256,1.096c-1.368,0.312-2.752,0.568-4.128,0.816c-1.536,0.272-3.088,0.512-4.648,0.712
			c-1.28,0.168-2.552,0.336-3.832,0.448c-2.24,0.2-4.512,0.304-6.792,0.344c-1.12,0.016-2.24,0.016-3.36,0
			c-2.288-0.04-4.552-0.144-6.792-0.344c-1.28-0.112-2.56-0.288-3.832-0.448c-1.56-0.2-3.112-0.44-4.648-0.712
			c-1.384-0.248-2.76-0.504-4.128-0.816c-1.44-0.32-2.848-0.712-4.256-1.096c-1.344-0.368-2.688-0.704-4.016-1.128
			c-22.16-7.136-40.752-22.152-52.632-41.704c-1.912-3.144-3.64-6.376-5.168-9.688c-0.16-0.344-0.336-0.672-0.488-1.016
			c-0.68-1.52-1.28-3.072-1.88-4.616c-0.392-1.016-0.768-2.04-1.128-3.072c-0.496-1.416-0.976-2.832-1.4-4.272
			c-0.68-2.312-1.304-4.64-1.808-7.016c-0.192-0.904-0.32-1.824-0.488-2.736c-0.36-1.968-0.672-3.952-0.912-5.96
			c-0.112-0.904-0.208-1.816-0.288-2.728c-0.288-2.824-0.472-5.672-0.472-8.56c0-3.264,0.176-6.584,0.512-9.88
			C197.472,133.808,238.4,96,288,96c52.936,0,96,43.064,96,96c0,7.68-1,15.112-2.712,22.272c-0.808,3.384-1.816,6.704-2.976,9.976
			c-0.136,0.368-0.272,0.744-0.408,1.112c-1.064,2.88-2.288,5.696-3.616,8.456c-0.288,0.6-0.568,1.208-0.872,1.8
			c-1.24,2.44-2.616,4.784-4.056,7.104c-0.472,0.76-0.896,1.544-1.392,2.288c-1.68,2.544-3.496,4.984-5.408,7.344
			C350.944,266.68,335.304,277.592,317.368,283.368z M464,360c0,13.232-10.768,24-24,24H320v-16h120c4.416,0,8-3.584,8-8V40
			c0-4.416-3.584-8-8-8H56c-4.416,0-8,3.584-8,8v272.056c-0.288,0.152-0.584,0.304-0.872,0.456
			c-0.248,0.136-0.504,0.256-0.752,0.392c-2.296,1.256-4.528,2.616-6.704,4.08c-0.168,0.112-0.344,0.216-0.512,0.328
			c-2.136,1.456-4.216,3.008-6.232,4.656c-0.192,0.16-0.4,0.296-0.592,0.456c-0.104,0.088-0.224,0.168-0.336,0.256V40
			c0-13.232,10.768-24,24-24h384c13.232,0,24,10.768,24,24V360z"/>
	</g>
</g>
<g>
	<g>
		<path d="M88,392v-48H72v56c0,4.416,3.584,8,8,8h56v-16H88z"/>
	</g>
</g>
<g>
	<g>
		<path d="M288,112c-44.112,0-80,35.888-80,80c0,6.096,0.744,12.008,2.04,17.712c0.008,0.024-0.008,0.04,0,0.064
			c0.08,0.36,0.2,0.704,0.288,1.064c0.856,3.536,1.936,6.976,3.24,10.312c0.232,0.608,0.424,1.232,0.672,1.832
			c0.136,0.328,0.304,0.64,0.448,0.96c0.904,2.096,1.888,4.136,2.952,6.128c0.024,0.048,0.056,0.096,0.08,0.144
			c9.856,18.288,26.408,31.888,46.168,38.064c0.256,0.08,0.504,0.152,0.76,0.232c2.056,0.624,4.144,1.16,6.264,1.616
			c0.544,0.12,1.08,0.248,1.632,0.352c1.92,0.376,3.872,0.664,5.84,0.896c0.632,0.08,1.264,0.184,1.904,0.248
			C282.832,271.848,285.4,272,288,272c2.6,0,5.168-0.152,7.704-0.392c0.64-0.064,1.264-0.168,1.904-0.248
			c1.968-0.232,3.92-0.52,5.84-0.896c0.544-0.104,1.088-0.232,1.632-0.352c2.12-0.456,4.208-0.992,6.264-1.616
			c0.256-0.08,0.504-0.152,0.76-0.232c19.76-6.184,36.312-19.776,46.168-38.072c0.024-0.048,0.056-0.096,0.08-0.144
			c1.064-1.992,2.056-4.032,2.952-6.128c0.144-0.328,0.312-0.632,0.448-0.96c0.248-0.6,0.44-1.224,0.672-1.832
			c1.312-3.336,2.384-6.776,3.24-10.312c0.088-0.36,0.208-0.704,0.288-1.064c0.008-0.024-0.008-0.04,0-0.064
			C367.256,204.008,368,198.096,368,192C368,147.888,332.112,112,288,112z M347.216,216.2c-1.032,2.552-2.264,4.968-3.584,7.328
			c-0.504,0.888-1.048,1.76-1.592,2.624c-0.848,1.352-1.768,2.648-2.712,3.928c-1.344,1.8-2.768,3.528-4.288,5.184
			c-0.712,0.776-1.416,1.568-2.16,2.312c-1.16,1.136-2.368,2.224-3.608,3.28c-0.672,0.568-1.368,1.096-2.056,1.632
			c-2.048,1.6-4.208,3.056-6.448,4.4c-1.008,0.6-2,1.208-3.04,1.752c-1.2,0.632-2.432,1.216-3.68,1.776
			c-1.632,0.72-3.296,1.376-4.992,1.968c-1.056,0.368-2.112,0.728-3.192,1.04c-2.224,0.64-4.496,1.168-6.816,1.56
			c-0.808,0.144-1.624,0.264-2.448,0.376c-2.84,0.368-5.688,0.64-8.6,0.64s-5.76-0.272-8.576-0.648
			c-0.824-0.112-1.64-0.232-2.448-0.376c-2.312-0.4-4.592-0.92-6.816-1.56c-1.08-0.312-2.136-0.672-3.192-1.04
			c-1.696-0.584-3.36-1.24-4.992-1.968c-1.248-0.56-2.48-1.144-3.68-1.776c-1.04-0.544-2.04-1.152-3.04-1.752
			c-2.24-1.344-4.392-2.808-6.448-4.4c-0.696-0.536-1.392-1.064-2.056-1.632c-1.24-1.048-2.448-2.136-3.608-3.28
			c-0.752-0.744-1.448-1.528-2.16-2.312c-1.52-1.648-2.952-3.376-4.288-5.184c-0.944-1.28-1.864-2.576-2.712-3.928
			c-0.544-0.864-1.088-1.728-1.592-2.624c-1.32-2.36-2.56-4.776-3.584-7.328c-0.024-0.064-0.048-0.136-0.072-0.2H256
			c2.872,0,5.52-1.536,6.944-4.032l24.032-42.048l17.672,41.232C305.904,214.096,308.8,216,312,216h35.288
			C347.264,216.064,347.24,216.136,347.216,216.2z M351.448,200H317.28l-21.92-51.152c-1.192-2.792-3.864-4.664-6.896-4.832
			c-3.008-0.128-5.896,1.384-7.4,4.016L251.36,200h-26.8c-0.336-2.624-0.56-5.288-0.56-8c0-35.288,28.712-64,64-64
			c35.288,0,64,28.712,64,64C352,194.712,351.776,197.376,351.448,200z"/>
	</g>
</g>
<g>
</g>
<g>
</g>
<g>
</g>
<g>
</g>
<g>
</g>
<g>
</g>
<g>
</g>
<g>
</g>
<g>
</g>
<g>
</g>
<g>
</g>
<g>
</g>
<g>
</g>
<g>
</g>
<g>
</g>
</svg>
