<?xml version="1.0" encoding="iso-8859-1"?>
<!-- Generator: Adobe Illustrator 19.0.0, SVG Export Plug-In . SVG Version: 6.00 Build 0)  -->
<svg version="1.1" id="Capa_1" xmlns="http://www.w3.org/2000/svg" xmlns:xlink="http://www.w3.org/1999/xlink" x="0px" y="0px"
	 viewBox="0 0 480 480" style="enable-background:new 0 0 480 480;" xml:space="preserve">
<g>
	<g>
		<path d="M440,0H40C17.944,0,0,17.944,0,40v312c0,22.056,17.944,40,40,40h156.584L170.4,464H144v16h32h128h32v-16h-26.4l-26.184-72
			H440c22.056,0,40-17.944,40-40V40C480,17.944,462.056,0,440,0z M292.576,464H187.424l26.176-72h52.8L292.576,464z M464,352
			c0,13.232-10.768,24-24,24H272h-64H40c-13.232,0-24-10.768-24-24v-8h448V352z M464,328H16V40c0-13.232,10.768-24,24-24h400
			c13.232,0,24,10.768,24,24V328z"/>
	</g>
</g>
<g>
	<g>
		<path d="M352,160c-26.472,0-48,21.528-48,48s21.528,48,48,48s48-21.528,48-48S378.472,160,352,160z M352,240
			c-17.648,0-32-14.352-32-32s14.352-32,32-32s32,14.352,32,32S369.648,240,352,240z"/>
	</g>
</g>
<g>
	<g>
		<path d="M440,176h-10.744l7.592-7.6c3.128-3.128,3.128-8.184,0-11.312l-33.936-33.944c-3.128-3.128-8.184-3.128-11.312,0l-7.6,7.6
			V120c0-4.416-3.576-8-8-8h-48c-4.424,0-8,3.584-8,8v10.744l-0.96-0.96c-7.84-12.168-19.888-20.768-33.776-24.144
			c-6.736-17.624-25.44-28.808-44.784-24.88C225.424,60.144,201.736,48,176,48c-35.76,0-66.696,23.576-76.632,57.184
			C95.624,104.4,91.824,104,88,104c-30.872,0-56,25.12-56,56s25.128,56,56,56h168v16c0,4.416,3.576,8,8,8h10.744l-7.592,7.6
			c-3.128,3.128-3.128,8.184,0,11.312l33.936,33.944c3.128,3.128,8.184,3.128,11.312,0l7.6-7.6V296c0,4.416,3.576,8,8,8h48
			c4.424,0,8-3.584,8-8v-10.744l7.6,7.6c3.128,3.128,8.184,3.128,11.312,0l33.936-33.944c3.128-3.128,3.128-8.184,0-11.312
			l-7.592-7.6H440c4.424,0,8-3.584,8-8v-48C448,179.584,444.424,176,440,176z M256,184v16H88c-22.056,0-40-17.944-40-40
			c0-22.056,17.944-40,40-40c4.856,0,9.672,0.904,14.328,2.696c2.224,0.856,4.712,0.672,6.8-0.496
			c2.08-1.168,3.52-3.208,3.944-5.552C118.536,86.136,145.008,64,176,64c22.2,0,42.496,11.312,54.304,30.264
			c2,3.216,6.008,4.584,9.512,3.288C242.696,96.504,245.376,96,248,96c11.112,0,20.672,7.576,23.264,18.432
			c0.76,3.184,3.376,5.584,6.616,6.056c6.704,0.992,12.936,3.648,18.216,7.648l-28.952,28.96c-3.128,3.128-3.128,8.184,0,11.312
			l7.6,7.592H264C259.576,176,256,179.584,256,184z M432,224h-12.184c-3.392,0-6.416,2.144-7.544,5.336
			c-0.752,2.128-1.608,4.184-2.56,6.2c-1.464,3.056-0.832,6.704,1.56,9.096l8.616,8.624l-22.624,22.632l-8.624-8.624
			c-2.392-2.4-6.04-3.016-9.12-1.56c-2.008,0.968-4.072,1.824-6.184,2.576c-3.2,1.128-5.336,4.152-5.336,7.536V288h-32v-12.184
			c0-3.384-2.136-6.408-5.328-7.536c-2.12-0.752-4.176-1.608-6.184-2.576c-3.08-1.456-6.728-0.84-9.12,1.56l-8.624,8.624
			l-22.624-22.632l8.616-8.624c2.4-2.392,3.024-6.04,1.56-9.096c-0.952-2.008-1.816-4.072-2.56-6.2
			c-1.136-3.192-4.16-5.336-7.552-5.336H272v-16v-16h12.184c3.392,0,6.416-2.144,7.544-5.336c0.752-2.128,1.608-4.184,2.568-6.2
			c1.456-3.056,0.832-6.696-1.568-9.096l-8.616-8.624l22.624-22.632l0.496,0.496l8.128,8.12c2.4,2.408,6.048,3.032,9.128,1.568
			c2.008-0.968,4.072-1.824,6.184-2.576c3.192-1.128,5.328-4.152,5.328-7.536V128h32v12.184c0,3.384,2.136,6.408,5.328,7.536
			c2.12,0.752,4.176,1.608,6.184,2.576c3.08,1.464,6.728,0.84,9.12-1.56l8.624-8.624l22.624,22.632l-8.616,8.624
			c-2.4,2.392-3.024,6.032-1.568,9.096c0.96,2.016,1.824,4.08,2.568,6.2c1.136,3.192,4.16,5.336,7.552,5.336H432V224z"/>
	</g>
</g>
<g>
</g>
<g>
</g>
<g>
</g>
<g>
</g>
<g>
</g>
<g>
</g>
<g>
</g>
<g>
</g>
<g>
</g>
<g>
</g>
<g>
</g>
<g>
</g>
<g>
</g>
<g>
</g>
<g>
</g>
</svg>
