<?xml version="1.0" encoding="iso-8859-1"?>
<!-- Generator: Adobe Illustrator 19.0.0, SVG Export Plug-In . SVG Version: 6.00 Build 0)  -->
<svg version="1.1" id="Layer_1" xmlns="http://www.w3.org/2000/svg" xmlns:xlink="http://www.w3.org/1999/xlink" x="0px" y="0px"
	 viewBox="0 0 480 480" style="enable-background:new 0 0 480 480;" xml:space="preserve">
<g>
	<g>
		<path d="M88,320H72c0,13.232-10.768,24-24,24v16c13.232,0,24,10.768,24,24h16c0-13.232,10.768-24,24-24v-16
			C98.768,344,88,333.232,88,320z M80,360.248c-2.336-3.144-5.104-5.912-8.248-8.248c3.144-2.336,5.912-5.104,8.248-8.248
			c2.336,3.144,5.104,5.912,8.248,8.248C85.104,354.336,82.336,357.104,80,360.248z"/>
	</g>
</g>
<g>
	<g>
		<path d="M464,352V136C464,61.008,402.984,0,327.976,0H324c-77.192,0-140,62.808-140,140v60c0,4.416,3.584,8,8,8h24v16
			c0,4.416,3.584,8,8,8h22.632c-3.304,9.312-12.2,16-22.632,16c-4.416,0-8,3.584-8,8v8c0,22.056,17.944,40,40,40h80v48H232
			c-66.168,0-120,53.832-120,120v8h16v-8c0-57.344,46.656-104,104-104h107.36l61.696,107.968c1.432,2.504,4.088,4.032,6.944,4.032
			c0.152,0,0.304,0,0.456-0.008c3.032-0.176,5.696-2.048,6.896-4.832L461.272,368H480v-16H464z M406.976,454.08L357.784,368h86.08
			L406.976,454.08z M448,352h-96v-56c0-4.416-3.584-8-8-8h-88c-13.232,0-24-10.768-24-24v-0.808c18.232-3.712,32-19.88,32-39.192
			c0-4.416-3.584-8-8-8h-24v-16c0-4.416-3.584-8-8-8h-24v-52c0-68.376,55.624-124,124-124h3.976C394.16,16,448,69.832,448,136V352z"
			/>
	</g>
</g>
<g>
	<g>
		<path d="M198.24,251L168,213.192V128c0-22.056-17.944-40-40-40H40c-22.056,0-40,17.944-40,40v96c0,22.056,17.944,40,40,40h152
			c3.072,0,5.88-1.76,7.208-4.536C200.544,256.696,200.168,253.4,198.24,251z M40,248c-13.232,0-24-10.768-24-24v-96
			c0-13.232,10.768-24,24-24h88c13.232,0,24,10.768,24,24v88c0,1.816,0.616,3.576,1.752,5l21.6,27H40z"/>
	</g>
</g>
<g>
	<g>
		<path d="M84,128c-28.672,0-52,21.528-52,48s23.328,48,52,48s52-21.528,52-48S112.672,128,84,128z M49.28,184h14.976
			c0.336,5.696,1.128,13.144,2.904,20.112C58.4,199.944,51.832,192.728,49.28,184z M64.256,168H49.28
			c2.552-8.728,9.12-15.944,17.88-20.112C65.384,154.848,64.592,162.304,64.256,168z M84,204.472
			c-1.528-4.176-3.08-11.232-3.696-20.472h7.392C87.08,193.24,85.528,200.296,84,204.472z M80.304,168
			c0.616-9.24,2.168-16.296,3.696-20.472c1.528,4.176,3.08,11.232,3.696,20.472H80.304z M100.84,204.112
			c1.776-6.96,2.568-14.416,2.904-20.112h14.976C116.168,192.728,109.6,199.944,100.84,204.112z M103.744,168
			c-0.336-5.696-1.128-13.144-2.904-20.112c8.76,4.168,15.328,11.384,17.88,20.112H103.744z"/>
	</g>
</g>
<g>
	<g>
		<path d="M296,128c0,13.232-10.768,24-24,24s-24-10.768-24-24h-16c0,22.056,17.944,40,40,40c22.056,0,40-17.944,40-40H296z"/>
	</g>
</g>
<g>
	<g>
		<rect x="312" y="384" width="16" height="16"/>
	</g>
</g>
<g>
	<g>
		<rect x="280" y="384" width="16" height="16"/>
	</g>
</g>
<g>
	<g>
		<rect x="248" y="384" width="16" height="16"/>
	</g>
</g>
<g>
</g>
<g>
</g>
<g>
</g>
<g>
</g>
<g>
</g>
<g>
</g>
<g>
</g>
<g>
</g>
<g>
</g>
<g>
</g>
<g>
</g>
<g>
</g>
<g>
</g>
<g>
</g>
<g>
</g>
</svg>
