<?xml version="1.0" encoding="iso-8859-1"?>
<!-- Generator: Adobe Illustrator 19.0.0, SVG Export Plug-In . SVG Version: 6.00 Build 0)  -->
<svg version="1.1" id="Capa_1" xmlns="http://www.w3.org/2000/svg" xmlns:xlink="http://www.w3.org/1999/xlink" x="0px" y="0px"
	 viewBox="0 0 409.6 409.6" style="enable-background:new 0 0 409.6 409.6;" xml:space="preserve">
<circle style="fill:#E56353;" cx="204.8" cy="204.8" r="204.8"/>
<circle style="fill:#D5D6DB;" cx="204.8" cy="204.8" r="160.563"/>
<path style="fill:#E56353;" d="M231.844,260.916h-58.627v-28.922c0-10.541,1.35-18.452,4.05-23.722
	c2.7-5.27,8.419-12.404,17.166-21.405l26.228-27c3.856-4.628,5.783-10.606,5.783-17.933c0-7.328-2.063-13.435-6.172-18.322
	c-4.115-4.882-9.515-7.328-16.2-7.328c-6.691,0-12.279,2.894-16.778,8.678c-4.498,5.783-7.268,13.441-8.289,22.95h-61.327
	c2.824-25.709,12.209-45.9,28.155-60.555c15.941-14.655,35.931-21.983,59.977-21.983c24.035,0,43.583,6.556,58.622,19.667
	c15.044,13.117,22.566,31.244,22.566,54.383c0,10.287-1.291,17.939-3.861,22.95c-2.57,5.017-4.374,8.618-5.4,10.8
	c-1.026,2.187-3.407,5.465-7.133,9.839c-3.731,4.374-6.237,7.198-7.522,8.483c-6.167,6.172-12.02,11.956-17.55,17.355
	c-5.53,5.4-9.196,9.833-10.989,13.305c-1.804,3.472-2.7,8.678-2.7,15.622V260.916z M179.195,334.394
	c-6.556-6.556-9.833-14.591-9.833-24.105c0-9.509,3.278-17.55,9.833-24.105c6.561-6.556,14.591-9.833,24.105-9.833
	c9.509,0,17.55,3.278,24.105,9.833c6.561,6.556,9.839,14.596,9.839,24.105c0,9.515-3.278,17.55-9.839,24.105
	c-6.556,6.556-14.596,9.833-24.105,9.833C193.785,344.227,185.756,340.949,179.195,334.394z"/>
<g>
</g>
<g>
</g>
<g>
</g>
<g>
</g>
<g>
</g>
<g>
</g>
<g>
</g>
<g>
</g>
<g>
</g>
<g>
</g>
<g>
</g>
<g>
</g>
<g>
</g>
<g>
</g>
<g>
</g>
</svg>
